<?xml version="1.0" encoding="utf-8"?>
<!-- Generator: Adobe Illustrator 23.0.3, SVG Export Plug-In . SVG Version: 6.00 Build 0)  -->
<svg version="1.1" id="Layer_1" xmlns="http://www.w3.org/2000/svg" xmlns:xlink="http://www.w3.org/1999/xlink" x="0px" y="0px"
	 viewBox="0 0 32 32" style="enable-background:new 0 0 32 32;" xml:space="preserve">
<style type="text/css">
	.st0{clip-path:url(#SVGID_2_);}
	.st1{clip-path:url(#SVGID_4_);}
</style>
<g>
	<g>
		<g>
			<path d="M7,28c-0.1679688,0-0.3369141-0.0424805-0.4892578-0.1279297C6.1953125,27.6953125,6,27.3618164,6,27V5
				c0-0.3618164,0.1953125-0.6953125,0.5107422-0.8720703C6.828125,3.9511719,7.2128906,3.9584961,7.5214844,4.1464844l18,11
				C25.8183594,15.3286133,26,15.6518555,26,16s-0.1816406,0.6713867-0.4785156,0.8535156l-18,11
				C7.3613281,27.9511719,7.1806641,28,7,28z M8,6.7832031v18.4335938L23.0820313,16L8,6.7832031z"/>
		</g>
	</g>
	<g>
		<path d="M25,28c-0.5527344,0-1-0.4477539-1-1V5c0-0.5522461,0.4472656-1,1-1s1,0.4477539,1,1v22
			C26,27.5522461,25.5527344,28,25,28z"/>
	</g>
</g>
</svg>
